<svg xmlns="http://www.w3.org/2000/svg" xmlns:xlink="http://www.w3.org/1999/xlink" width="666" zoomAndPan="magnify" viewBox="0 0 499.5 314.250004" height="419" preserveAspectRatio="xMidYMid meet" version="1.0"><defs><g/><clipPath id="75e71d4612"><path d="M 329.1875 75.003906 L 424.308594 75.003906 L 424.308594 239.027344 L 329.1875 239.027344 Z M 329.1875 75.003906 " clip-rule="nonzero"/></clipPath><clipPath id="c5f567f216"><path d="M 124.550781 102.390625 L 173.980469 102.390625 L 173.980469 109.878906 L 124.550781 109.878906 Z M 124.550781 102.390625 " clip-rule="nonzero"/></clipPath><clipPath id="ab9e3a10c9"><path d="M 109.84375 114.710938 L 170.507812 114.710938 L 170.507812 122.203125 L 109.84375 122.203125 Z M 109.84375 114.710938 " clip-rule="nonzero"/></clipPath><clipPath id="885ce923f2"><path d="M 96.367188 127.039062 L 166.769531 127.039062 L 166.769531 134.527344 L 96.367188 134.527344 Z M 96.367188 127.039062 " clip-rule="nonzero"/></clipPath><clipPath id="ebc57c3eda"><path d="M 75.539062 139.367188 L 163.167969 139.367188 L 163.167969 146.859375 L 75.539062 146.859375 Z M 75.539062 139.367188 " clip-rule="nonzero"/></clipPath><clipPath id="e50e9a87f0"><path d="M 92.90625 151.695312 L 159.5625 151.695312 L 159.5625 159.183594 L 92.90625 159.183594 Z M 92.90625 151.695312 " clip-rule="nonzero"/></clipPath><clipPath id="24a3eabda6"><path d="M 96.789062 164.019531 L 155.957031 164.019531 L 155.957031 171.507812 L 96.789062 171.507812 Z M 96.789062 164.019531 " clip-rule="nonzero"/></clipPath><clipPath id="386f61d536"><path d="M 103.089844 176.347656 L 152.519531 176.347656 L 152.519531 183.835938 L 103.089844 183.835938 Z M 103.089844 176.347656 " clip-rule="nonzero"/></clipPath></defs><g clip-path="url(#75e71d4612)"><path fill="#00c4cc" d="M 357.375 75.007812 L 418.429688 75.007812 L 392.597656 123.15625 L 424.300781 123.15625 L 347.589844 239.023438 L 367.941406 153.6875 L 329.195312 153.6875 L 357.375 75.007812 " fill-opacity="1" fill-rule="nonzero"/></g><g clip-path="url(#c5f567f216)"><path fill="#ffffff" d="M 173.976562 102.390625 L 124.554688 106.132812 L 173.976562 109.878906 L 173.976562 102.390625 " fill-opacity="1" fill-rule="nonzero"/></g><g fill="#ffffff" fill-opacity="1"><g transform="translate(167.606489, 193.368669)"><g><path d="M -6.6875 0 L 15.390625 -95.8125 L 53.765625 -95.8125 L 49.53125 -77.1875 L 30.453125 -77.1875 L 26.875 -61.90625 L 44.953125 -61.90625 L 40.71875 -43.5 L 22.640625 -43.5 L 12.609375 0 Z M -6.6875 0 "/></g></g></g><g fill="#ffffff" fill-opacity="1"><g transform="translate(214.123689, 193.368669)"><g><path d="M -9.265625 0 L 22.078125 -95.8125 L 54.546875 -95.8125 L 41.609375 0 L 23.421875 0 L 25.65625 -15.5 L 14.046875 -15.5 L 9.375 0 Z M 19.078125 -30.78125 L 27.765625 -30.78125 L 34.6875 -79.53125 L 33.796875 -79.53125 Z M 19.078125 -30.78125 "/></g></g></g><g fill="#ffffff" fill-opacity="1"><g transform="translate(270.234341, 193.368669)"><g><path d="M 15.84375 0.890625 C 7.132812 0.890625 1.351562 -1.265625 -1.5 -5.578125 C -4.363281 -9.890625 -4.679688 -16.84375 -2.453125 -26.4375 L -0.34375 -35.8125 L 18.515625 -35.8125 L 15.71875 -23.875 C 14.601562 -19.113281 15.570312 -16.734375 18.625 -16.734375 C 20.332031 -16.734375 21.648438 -17.234375 22.578125 -18.234375 C 23.515625 -19.242188 24.242188 -20.9375 24.765625 -23.3125 C 25.503906 -26.4375 25.722656 -29.019531 25.421875 -31.0625 C 25.128906 -33.113281 24.570312 -34.828125 23.75 -36.203125 C 22.9375 -37.578125 21.378906 -39.710938 19.078125 -42.609375 L 12.71875 -50.859375 C 7.8125 -57.109375 6.210938 -64.023438 7.921875 -71.609375 C 9.773438 -79.796875 13.082031 -86.023438 17.84375 -90.296875 C 22.601562 -94.578125 28.585938 -96.71875 35.796875 -96.71875 C 44.429688 -96.71875 50.125 -94.425781 52.875 -89.84375 C 55.625 -85.269531 55.847656 -78.113281 53.546875 -68.375 L 34.015625 -68.375 L 35.46875 -74.953125 C 35.769531 -76.222656 35.660156 -77.226562 35.140625 -77.96875 C 34.617188 -78.71875 33.722656 -79.09375 32.453125 -79.09375 C 30.972656 -79.09375 29.75 -78.679688 28.78125 -77.859375 C 27.8125 -77.035156 27.175781 -75.921875 26.875 -74.515625 C 26.132812 -71.390625 27.175781 -68.15625 30 -64.8125 L 38.703125 -54.09375 C 40.710938 -51.570312 42.3125 -49.175781 43.5 -46.90625 C 44.6875 -44.632812 45.445312 -41.957031 45.78125 -38.875 C 46.125 -35.789062 45.8125 -32.128906 44.84375 -27.890625 C 42.613281 -18.441406 39.207031 -11.28125 34.625 -6.40625 C 30.050781 -1.539062 23.789062 0.890625 15.84375 0.890625 Z M 15.84375 0.890625 "/></g></g></g><g fill="#ffffff" fill-opacity="1"><g transform="translate(323.667731, 193.368669)"><g><path d="M 1.453125 0 L 19.296875 -77.40625 L 7.921875 -77.40625 L 12.15625 -95.8125 L 54.09375 -95.8125 L 49.859375 -77.40625 L 38.484375 -77.40625 L 20.640625 0 Z M 1.453125 0 "/></g></g></g><g clip-path="url(#ab9e3a10c9)"><path fill="#ffffff" d="M 170.507812 114.710938 L 109.84375 118.457031 L 170.507812 122.203125 L 170.507812 114.710938 " fill-opacity="1" fill-rule="nonzero"/></g><g clip-path="url(#885ce923f2)"><path fill="#ffffff" d="M 166.765625 127.039062 L 96.371094 130.785156 L 166.765625 134.527344 L 166.765625 127.039062 " fill-opacity="1" fill-rule="nonzero"/></g><g clip-path="url(#ebc57c3eda)"><path fill="#ffffff" d="M 163.160156 139.367188 L 75.546875 143.113281 L 163.160156 146.859375 L 163.160156 139.367188 " fill-opacity="1" fill-rule="nonzero"/></g><g clip-path="url(#e50e9a87f0)"><path fill="#ffffff" d="M 159.558594 151.695312 L 92.910156 155.4375 L 159.558594 159.183594 L 159.558594 151.695312 " fill-opacity="1" fill-rule="nonzero"/></g><g clip-path="url(#24a3eabda6)"><path fill="#ffffff" d="M 155.953125 164.019531 L 96.792969 167.761719 L 155.953125 171.507812 L 155.953125 164.019531 " fill-opacity="1" fill-rule="nonzero"/></g><g clip-path="url(#386f61d536)"><path fill="#ffffff" d="M 152.515625 176.347656 L 103.09375 180.089844 L 152.515625 183.835938 L 152.515625 176.347656 " fill-opacity="1" fill-rule="nonzero"/></g></svg>