<svg xmlns="http://www.w3.org/2000/svg" xmlns:xlink="http://www.w3.org/1999/xlink" width="500" zoomAndPan="magnify" viewBox="0 0 375 374.999991" height="500" preserveAspectRatio="xMidYMid meet" version="1.0"><defs><g/><clipPath id="9be46068d1"><path d="M 263.332031 109.300781 L 354.082031 109.300781 L 354.082031 266.050781 L 263.332031 266.050781 Z M 263.332031 109.300781 " clip-rule="nonzero"/></clipPath><clipPath id="b94ffc737a"><path d="M 67.917969 135.441406 L 115.167969 135.441406 L 115.167969 142.191406 L 67.917969 142.191406 Z M 67.917969 135.441406 " clip-rule="nonzero"/></clipPath><clipPath id="9ef3b1fcb2"><path d="M 54.105469 147.207031 L 111.855469 147.207031 L 111.855469 153.957031 L 54.105469 153.957031 Z M 54.105469 147.207031 " clip-rule="nonzero"/></clipPath><clipPath id="bdf24a480a"><path d="M 41.535156 158.972656 L 108.285156 158.972656 L 108.285156 165.722656 L 41.535156 165.722656 Z M 41.535156 158.972656 " clip-rule="nonzero"/></clipPath><clipPath id="d0f91bf1c6"><path d="M 20.847656 170.742188 L 104.847656 170.742188 L 104.847656 177.492188 L 20.847656 177.492188 Z M 20.847656 170.742188 " clip-rule="nonzero"/></clipPath><clipPath id="d83c1b1107"><path d="M 37.652344 182.507812 L 101.402344 182.507812 L 101.402344 189.257812 L 37.652344 189.257812 Z M 37.652344 182.507812 " clip-rule="nonzero"/></clipPath><clipPath id="417df04b97"><path d="M 40.960938 194.269531 L 97.960938 194.269531 L 97.960938 201.019531 L 40.960938 201.019531 Z M 40.960938 194.269531 " clip-rule="nonzero"/></clipPath><clipPath id="77fb3a3a86"><path d="M 47.433594 206.039062 L 94.683594 206.039062 L 94.683594 212.789062 L 47.433594 212.789062 Z M 47.433594 206.039062 " clip-rule="nonzero"/></clipPath></defs><rect x="-37.5" width="450" fill="#ffffff" y="-37.499999" height="449.999989" fill-opacity="1"/><rect x="-37.5" width="450" fill="#ffffff" y="-37.499999" height="449.999989" fill-opacity="1"/><rect x="-37.5" width="450" fill="#ffffff" y="-37.499999" height="449.999989" fill-opacity="1"/><rect x="-37.5" width="450" fill="#ffffff" y="-37.499999" height="449.999989" fill-opacity="1"/><g clip-path="url(#9be46068d1)"><path fill="#00c4cc" d="M 290.222656 109.304688 L 348.480469 109.304688 L 323.828125 155.316406 L 354.078125 155.316406 L 280.886719 266.042969 L 300.304688 184.492188 L 263.335938 184.492188 L 290.222656 109.304688 " fill-opacity="1" fill-rule="nonzero"/></g><g clip-path="url(#b94ffc737a)"><path fill="#000000" d="M 115.152344 135.441406 L 67.933594 138.816406 L 115.152344 142.191406 L 115.152344 135.441406 " fill-opacity="1" fill-rule="nonzero"/></g><g fill="#000000" fill-opacity="1"><g transform="translate(109.086041, 222.288981)"><g><path d="M -6.390625 0 L 14.703125 -91.46875 L 51.328125 -91.46875 L 47.28125 -73.6875 L 29.078125 -73.6875 L 25.671875 -59.09375 L 42.921875 -59.09375 L 38.875 -41.53125 L 21.625 -41.53125 L 12.03125 0 Z M -6.390625 0 "/></g></g></g><g fill="#000000" fill-opacity="1"><g transform="translate(153.491232, 222.288981)"><g><path d="M -8.828125 0 L 21.09375 -91.46875 L 52.078125 -91.46875 L 39.71875 0 L 22.359375 0 L 24.5 -14.796875 L 13.421875 -14.796875 L 8.953125 0 Z M 18.21875 -29.390625 L 26.515625 -29.390625 L 33.125 -75.921875 L 32.265625 -75.921875 Z M 18.21875 -29.390625 "/></g></g></g><g fill="#000000" fill-opacity="1"><g transform="translate(207.054306, 222.288981)"><g><path d="M 15.125 0.859375 C 6.820312 0.859375 1.304688 -1.195312 -1.421875 -5.3125 C -4.160156 -9.4375 -4.46875 -16.078125 -2.34375 -25.234375 L -0.3125 -34.1875 L 17.671875 -34.1875 L 15.015625 -22.78125 C 13.953125 -18.238281 14.875 -15.96875 17.78125 -15.96875 C 19.414062 -15.96875 20.675781 -16.445312 21.5625 -17.40625 C 22.445312 -18.363281 23.140625 -19.976562 23.640625 -22.25 C 24.347656 -25.238281 24.5625 -27.707031 24.28125 -29.65625 C 24 -31.601562 23.46875 -33.234375 22.6875 -34.546875 C 21.90625 -35.867188 20.414062 -37.910156 18.21875 -40.671875 L 12.140625 -48.5625 C 7.453125 -54.519531 5.925781 -61.117188 7.5625 -68.359375 C 9.332031 -76.171875 12.488281 -82.117188 17.03125 -86.203125 C 21.582031 -90.285156 27.300781 -92.328125 34.1875 -92.328125 C 42.414062 -92.328125 47.84375 -90.140625 50.46875 -85.765625 C 53.101562 -81.398438 53.316406 -74.570312 51.109375 -65.28125 L 32.484375 -65.28125 L 33.859375 -71.5625 C 34.148438 -72.769531 34.046875 -73.726562 33.546875 -74.4375 C 33.046875 -75.144531 32.191406 -75.5 30.984375 -75.5 C 29.566406 -75.5 28.394531 -75.109375 27.46875 -74.328125 C 26.550781 -73.546875 25.953125 -72.476562 25.671875 -71.125 C 24.953125 -68.144531 25.941406 -65.0625 28.640625 -61.875 L 36.953125 -51.640625 C 38.867188 -49.234375 40.394531 -46.945312 41.53125 -44.78125 C 42.664062 -42.613281 43.390625 -40.054688 43.703125 -37.109375 C 44.023438 -34.160156 43.726562 -30.664062 42.8125 -26.625 C 40.675781 -17.601562 37.425781 -10.765625 33.0625 -6.109375 C 28.695312 -1.460938 22.71875 0.859375 15.125 0.859375 Z M 15.125 0.859375 "/></g></g></g><g fill="#000000" fill-opacity="1"><g transform="translate(258.061674, 222.288981)"><g><path d="M 1.390625 0 L 18.421875 -73.90625 L 7.5625 -73.90625 L 11.609375 -91.46875 L 51.640625 -91.46875 L 47.59375 -73.90625 L 36.734375 -73.90625 L 19.703125 0 Z M 1.390625 0 "/></g></g></g><g clip-path="url(#9ef3b1fcb2)"><path fill="#000000" d="M 111.835938 147.207031 L 54.125 150.582031 L 111.835938 153.957031 L 111.835938 147.207031 " fill-opacity="1" fill-rule="nonzero"/></g><g clip-path="url(#bdf24a480a)"><path fill="#000000" d="M 108.265625 158.972656 L 41.554688 162.347656 L 108.265625 165.722656 L 108.265625 158.972656 " fill-opacity="1" fill-rule="nonzero"/></g><g clip-path="url(#d0f91bf1c6)"><path fill="#000000" d="M 104.816406 170.742188 L 20.878906 174.117188 L 104.816406 177.492188 L 104.816406 170.742188 " fill-opacity="1" fill-rule="nonzero"/></g><g clip-path="url(#d83c1b1107)"><path fill="#000000" d="M 101.382812 182.507812 L 37.675781 185.882812 L 101.382812 189.257812 L 101.382812 182.507812 " fill-opacity="1" fill-rule="nonzero"/></g><g clip-path="url(#417df04b97)"><path fill="#000000" d="M 97.945312 194.269531 L 40.976562 197.644531 L 97.945312 201.019531 L 97.945312 194.269531 " fill-opacity="1" fill-rule="nonzero"/></g><g clip-path="url(#77fb3a3a86)"><path fill="#000000" d="M 94.667969 206.039062 L 47.445312 209.414062 L 94.667969 212.789062 L 94.667969 206.039062 " fill-opacity="1" fill-rule="nonzero"/></g></svg>